<svg class="svg-icon" style="width: 1em; height: 1em;vertical-align: middle;fill: currentColor;overflow: hidden;" viewBox="0 0 1024 1024" version="1.1" xmlns="http://www.w3.org/2000/svg"><path d="M822.4 603.2l-32-6.4c3.2-19.2 6.4-38.4 6.4-57.6s-1.6-38.4-6.4-57.6c-3.2-19.2-9.6-36.8-16-54.4-8-17.6-16-33.6-27.2-49.6-9.6-16-22.4-28.8-35.2-43.2-12.8-12.8-27.2-25.6-43.2-35.2-16-9.6-32-19.2-49.6-27.2s-35.2-12.8-54.4-16c-38.4-8-78.4-8-116.8 0-19.2 3.2-36.8 9.6-54.4 16-17.6 8-33.6 16-49.6 27.2-16 9.6-30.4 22.4-43.2 35.2-12.8 12.8-25.6 27.2-35.2 43.2-9.6 16-19.2 32-27.2 49.6s-12.8 35.2-16 54.4c-3.2 19.2-6.4 38.4-6.4 57.6s1.6 38.4 6.4 57.6l-32 6.4c-4.8-20.8-6.4-43.2-6.4-64s1.6-43.2 6.4-64c4.8-20.8 11.2-40 19.2-60.8 8-19.2 17.6-36.8 28.8-54.4s24-33.6 38.4-48c14.4-14.4 30.4-27.2 48-38.4s35.2-20.8 54.4-28.8c19.2-8 40-14.4 60.8-19.2 41.6-8 86.4-8 129.6 0 20.8 4.8 40 11.2 60.8 19.2 19.2 8 36.8 17.6 54.4 28.8s33.6 24 48 38.4c14.4 14.4 27.2 30.4 38.4 48s20.8 35.2 28.8 54.4c8 19.2 14.4 40 19.2 60.8 4.8 20.8 6.4 43.2 6.4 64s0 43.2-3.2 64z" fill="#7069F3" /><path d="M798.4 649.6l-16-3.2c3.2-19.2 6.4-38.4 6.4-57.6 0-19.2-1.6-38.4-6.4-57.6-3.2-17.6-9.6-35.2-16-52.8-6.4-16-16-33.6-25.6-48-9.6-14.4-20.8-28.8-33.6-41.6s-27.2-24-41.6-35.2c-14.4-9.6-30.4-19.2-48-25.6-17.6-8-35.2-12.8-52.8-16-36.8-8-75.2-8-113.6 0-17.6 3.2-35.2 9.6-52.8 16-16 6.4-32 16-48 25.6-14.4 9.6-28.8 22.4-41.6 35.2-12.8 12.8-24 27.2-33.6 41.6-9.6 14.4-19.2 32-25.6 48-6.4 17.6-12.8 35.2-16 52.8-3.2 19.2-6.4 38.4-6.4 57.6 0 19.2 1.6 38.4 6.4 57.6l-16 3.2c-3.2-19.2-6.4-40-6.4-60.8 0-20.8 1.6-40 6.4-60.8 3.2-19.2 9.6-38.4 17.6-56 8-17.6 16-35.2 27.2-51.2s22.4-30.4 36.8-44.8c12.8-12.8 28.8-25.6 43.2-36.8 16-11.2 32-20.8 49.6-27.2 17.6-8 36.8-12.8 56-17.6 38.4-8 80-8 120 0 19.2 3.2 38.4 9.6 56 17.6 17.6 8 35.2 16 49.6 27.2 16 11.2 30.4 22.4 43.2 36.8 12.8 12.8 25.6 28.8 36.8 44.8 11.2 16 19.2 33.6 27.2 51.2s12.8 36.8 17.6 56c3.2 19.2 6.4 40 6.4 60.8 0 20.8-1.6 41.6-6.4 60.8z" fill="#7069F3" /><path d="M305.6 561.6l49.6 185.6-30.4 8-49.6-185.6 30.4-8m0-32c-3.2 0-4.8 0-8 1.6l-30.4 8c-17.6 4.8-27.2 22.4-22.4 38.4l52.8 196.8c3.2 9.6 11.2 16 20.8 16h4.8l41.6-11.2c17.6-4.8 27.2-22.4 22.4-38.4l-49.6-185.6c-4.8-16-17.6-25.6-32-25.6z" fill="#7069F3" /><path d="M256 761.6c-6.4 0-12.8-4.8-16-11.2l-35.2-132.8c-1.6-8 1.6-16 8-19.2l46.4-20.8 48 179.2-51.2 4.8z" fill="#BDBBFE" /><path d="M249.6 598.4l38.4 144-32 3.2-35.2-132.8 28.8-14.4m20.8-44.8l-64 28.8c-14.4 6.4-22.4 22.4-17.6 36.8L224 752c3.2 14.4 16 24 30.4 24h3.2l70.4-6.4-57.6-216z" fill="#7069F3" /><path d="M718.4 561.6l30.4 8-49.6 185.6-30.4-8 49.6-185.6m0-32c-14.4 0-27.2 9.6-30.4 24l-49.6 185.6c-4.8 17.6 4.8 35.2 22.4 38.4l41.6 11.2h4.8c9.6 0 17.6-6.4 20.8-16L780.8 576c4.8-17.6-4.8-35.2-22.4-38.4l-30.4-8h-9.6z" fill="#7069F3" /><path d="M766.4 761.6l-51.2-4.8 48-179.2 46.4 20.8c6.4 3.2 11.2 11.2 8 19.2L784 750.4c-1.6 6.4-8 11.2-17.6 11.2z" fill="#BDBBFE" /><path d="M774.4 598.4l28.8 12.8-35.2 134.4-32-3.2 38.4-144m-20.8-44.8l-57.6 216 70.4 6.4h3.2c14.4 0 27.2-9.6 30.4-24l35.2-132.8c4.8-14.4-3.2-30.4-17.6-36.8l-64-28.8z" fill="#7069F3" /></svg>